<svg id="Layer_1" data-name="Layer 1" xmlns="http://www.w3.org/2000/svg" viewBox="0 0 156 50"><defs><style>.cls-1{fill:#1e1e1e;}.cls-2{fill:#fff;}</style></defs><rect class="cls-1" width="156" height="50" rx="10"/><path class="cls-2" d="M34.25,24.86a6.43,6.43,0,0,1,3.06-5.4,6.56,6.56,0,0,0-5.19-2.8c-2.18-.23-4.3,1.31-5.41,1.31S23.86,16.68,22,16.72a6.91,6.91,0,0,0-5.81,3.55C13.69,24.62,15.57,31,18,34.53c1.21,1.73,2.62,3.65,4.46,3.58S24.91,37,27.08,37s2.79,1.15,4.67,1.11,3.15-1.73,4.32-3.47a14.32,14.32,0,0,0,2-4A6.2,6.2,0,0,1,34.25,24.86Z"/><path class="cls-2" d="M30.7,14.35a6.35,6.35,0,0,0,1.44-4.54A6.45,6.45,0,0,0,28,12a6,6,0,0,0-1.48,4.37A5.38,5.38,0,0,0,30.7,14.35Z"/><path class="cls-2" d="M67.18,26.68C70.06,26.68,72,29,72,32.46s-1.88,5.78-4.72,5.78a3.81,3.81,0,0,1-3.56-2h-.06v5.6H61.29V26.8h2.25v1.89h0A4,4,0,0,1,67.18,26.68Zm12.46,0c2.87,0,4.77,2.28,4.77,5.78s-1.89,5.78-4.73,5.78a3.82,3.82,0,0,1-3.56-2h-.05v5.6H73.74V26.8H76v1.89H76A4,4,0,0,1,79.64,26.68Zm16.67-4.34c3.29,0,5.53,1.84,5.61,4.52H99.58c-.15-1.55-1.43-2.49-3.3-2.49s-3.15.95-3.15,2.33c0,1.09.82,1.74,2.82,2.23l1.71.42c3.18.76,4.51,2,4.51,4.31,0,2.9-2.32,4.72-6,4.72-3.45,0-5.77-1.78-5.92-4.58h2.38c.17,1.53,1.66,2.55,3.71,2.55s3.36-1,3.36-2.4c0-1.21-.85-1.93-2.86-2.42l-2-.49c-2.85-.69-4.17-2-4.17-4.18C90.67,24.18,93,22.34,96.31,22.34ZM116,26.66c3.28,0,5.37,2.24,5.37,5.8s-2.08,5.8-5.37,5.8-5.37-2.23-5.37-5.8S112.68,26.66,116,26.66Zm18.81,0c3.13,0,5.1,2.15,5.1,5.59V33h-8v.14a2.94,2.94,0,0,0,3,3.21,2.56,2.56,0,0,0,2.61-1.59h2.21c-.31,2.05-2.31,3.46-4.87,3.46-3.3,0-5.34-2.21-5.34-5.74s2-5.86,5.24-5.86Zm-27.58-2.54V26.8h2.15v1.84h-2.15v6.24c0,1,.43,1.42,1.38,1.42a6.33,6.33,0,0,0,.76,0v1.83a6.13,6.13,0,0,1-1.29.1c-2.29,0-3.18-.86-3.18-3V28.64H103.2V26.8h1.65V24.12ZM54.24,22.6l5.61,15.52H57.3l-1.42-4.2H50l-1.42,4.2H46L51.64,22.6Zm74,4.08a3.57,3.57,0,0,1,.8.09v2.17A3.37,3.37,0,0,0,128,28.8a2.36,2.36,0,0,0-2.42,2.61v6.71h-2.32V26.8h2.22v1.93h0A2.72,2.72,0,0,1,128.22,26.68ZM116,28.58c-1.88,0-3,1.45-3,3.88s1.12,3.89,3,3.89,3-1.44,3-3.89S117.83,28.58,116,28.58ZM79,28.66c-1.78,0-3,1.54-3,3.8s1.19,3.81,3,3.81,3-1.5,3-3.81S80.83,28.66,79,28.66Zm-12.46,0c-1.77,0-3,1.54-3,3.8s1.2,3.81,3,3.81,3-1.5,3-3.81S68.38,28.66,66.57,28.66ZM53,25.18h-.06L50.57,32h4.69Zm81.81,3.37a2.85,2.85,0,0,0-2.88,2.87h5.65a2.72,2.72,0,0,0-2.77-2.87Zm-3.25-15.92c1.56,0,2.51,1.07,2.51,2.84v.39h-4v.06a1.5,1.5,0,0,0,.4,1.14,1.43,1.43,0,0,0,1.1.47,1.33,1.33,0,0,0,1.34-.68H134a2.29,2.29,0,0,1-2.44,1.63,2.56,2.56,0,0,1-2.6-2.9,2.61,2.61,0,0,1,.63-2.07A2.65,2.65,0,0,1,131.51,12.63ZM59.16,13a2.66,2.66,0,0,1,1.25,2.52,2.67,2.67,0,1,1-5.31,0A2.67,2.67,0,0,1,59.16,13Zm24.42,0a2.66,2.66,0,0,1,1.25,2.52,2.65,2.65,0,0,1-1.25,2.52,2.67,2.67,0,0,1-4.06-2.52A2.68,2.68,0,0,1,80.77,13,2.64,2.64,0,0,1,83.58,13Zm22.52,0a2.68,2.68,0,0,1,1.25,2.52,2.67,2.67,0,0,1-4.07,2.52A2.66,2.66,0,0,1,102,15.56,2.67,2.67,0,0,1,106.1,13Zm-17.58-.41c1.41,0,2.21.71,2.21,1.9v3.84H89.66v-.79h-.09a1.88,1.88,0,0,1-1.69.88A1.7,1.7,0,0,1,86,16.78c0-1,.76-1.6,2.09-1.68L89.62,15v-.48c0-.6-.39-.93-1.15-.93s-1,.22-1.18.62H86.22C86.33,13.26,87.24,12.63,88.52,12.63Zm8.92-2.08v7.82H96.38v-.89h-.09a2,2,0,0,1-1.77,1c-1.43,0-2.33-1.12-2.33-2.9s.91-2.91,2.33-2.91a1.86,1.86,0,0,1,1.73,1h.08V10.55Zm22.45.79v1.43h1.22v.93h-1.22v2.9c0,.59.25.85.8.85a3,3,0,0,0,.42,0v.93a4,4,0,0,1-.6,0c-1.24,0-1.73-.43-1.73-1.52V13.7h-.89v-.93h.89V11.34Zm-67,.6a3.27,3.27,0,0,1,.88,2.68c0,2.38-1.29,3.75-3.51,3.75H47.59V10.91h2.69A3.29,3.29,0,0,1,52.91,11.94Zm9.43.8,1,4.3h.08l1.16-4.3h1.06L66.81,17h.09l1-4.3H69l-1.54,5.63H66.31l-1.16-4.14h-.09L63.9,18.37H62.76l-1.55-5.63Zm12.29.47a1.84,1.84,0,0,1,.47,1.52v3.64H74V15c0-.91-.4-1.36-1.22-1.36a1.31,1.31,0,0,0-1,.41,1.27,1.27,0,0,0-.34,1v3.29H70.32V12.74h1.07v.9h.08a1.7,1.7,0,0,1,1.68-1A1.87,1.87,0,0,1,74.63,13.21Zm49.1-2.66v3.1h.09a1.72,1.72,0,0,1,1.72-1,1.84,1.84,0,0,1,1.93,2.1v3.63h-1.11V15c0-.9-.42-1.35-1.2-1.35a1.33,1.33,0,0,0-1,.38,1.35,1.35,0,0,0-.38,1v3.29h-1.11V10.55ZM78,10.55v7.82H76.87V10.55Zm35.17,2.66a1.84,1.84,0,0,1,.47,1.52v3.64h-1.11V15c0-.91-.4-1.36-1.22-1.36a1.31,1.31,0,0,0-1,.41,1.27,1.27,0,0,0-.34,1v3.29h-1.11V12.74h1.07v.9H110a1.7,1.7,0,0,1,1.68-1A1.87,1.87,0,0,1,113.15,13.21ZM89.62,15.83l-1.38.09c-.77.05-1.12.31-1.12.81s.44.8,1,.8a1.27,1.27,0,0,0,1-.31,1.32,1.32,0,0,0,.47-.92ZM57.76,13.62c-1,0-1.51.72-1.51,1.94s.54,1.93,1.51,1.93,1.51-.71,1.51-1.93S58.72,13.62,57.76,13.62Zm24.42,0c-1,0-1.51.72-1.51,1.94s.54,1.93,1.51,1.93,1.51-.71,1.51-1.93S83.14,13.62,82.18,13.62Zm22.51,0c-1,0-1.5.72-1.5,1.94s.54,1.93,1.5,1.93,1.51-.71,1.51-1.93S105.66,13.62,104.69,13.62Zm-9.85,0c-.94,0-1.51.72-1.51,1.91s.57,1.91,1.51,1.91,1.51-.73,1.51-1.91S95.77,13.65,94.84,13.65ZM50.15,12h-1.4v5.35h1.4A2.36,2.36,0,0,0,52,16.56a2.31,2.31,0,0,0,.59-1.92,2.33,2.33,0,0,0-.6-1.92A2.36,2.36,0,0,0,50.15,12Zm81.35,1.61A1.45,1.45,0,0,0,130,15h2.85a1.38,1.38,0,0,0-.37-1A1.37,1.37,0,0,0,131.5,13.58Z"/></svg>