<svg xmlns="http://www.w3.org/2000/svg" width="188" height="171" viewBox="0 0 188 171"><defs><style>.a{fill:#e37cff;}.b{fill:#ff001a;}.c{fill:#b40e0e;}.d{fill:#b0b2ff;}.e{fill:#328df0;}.f{fill:#166bb7;}.g{fill:#001c63;}</style></defs><g transform="translate(-1.5 -4)"><g transform="translate(1.499 4)"><path class="a" d="M119.566,89.215a30.03,30.03,0,0,0-8.984-21.374A4.817,4.817,0,0,1,109.42,62.8,21.065,21.065,0,0,0,96.142,36.124c-.269-.089-.538-.174-.81-.253A21.141,21.141,0,0,0,74.308,16.909c-.214,0-.4-.611-.611-.611A26.591,26.591,0,0,0,52.763,5H48.668a12.663,12.663,0,0,0-2.2.183A14.718,14.718,0,0,0,34,19.657V155.232a14.753,14.753,0,0,0,12.988,14.657,15.432,15.432,0,0,0,1.681,0h5.837a22.852,22.852,0,0,0,9.168-2.26l.825-.366h.489a19.745,19.745,0,0,0,22.858-11.939h1.222a19.9,19.9,0,0,0,19.008-9.863,19.489,19.489,0,0,0,1.222-16.214,14.956,14.956,0,0,0,4.156-21.924A30.039,30.039,0,0,0,119.566,89.215Z" transform="translate(65.35 -1.944)"/><path class="b" d="M110.4,89.051a30.03,30.03,0,0,0-8.984-21.374,4.817,4.817,0,0,1-1.161-5.038A21.065,21.065,0,0,0,86.975,35.96c-.269-.089-.538-.174-.81-.253A21.14,21.14,0,0,0,65.14,16.744c-.214,0-.4-.611-.611-.611A27.115,27.115,0,0,0,46.468,5.08,14.721,14.721,0,0,0,34,19.492V155.067A14.724,14.724,0,0,0,46.224,169.51h.764a25.66,25.66,0,0,0,8.4-2.412,19.143,19.143,0,0,0,5.165.641,18.31,18.31,0,0,0,3.056-.275,7.071,7.071,0,0,1,1.314-.244,19.741,19.741,0,0,0,21.025-12.764c10.574,0,11.551-2.382,15.28-9.16,3.056-5.618.672-11.389-1.1-16.214a14.956,14.956,0,0,0,4.156-21.924A30.039,30.039,0,0,0,110.4,89.051Z" transform="translate(65.35 -1.78)"/><path class="c" d="M38.056,39V97.063c-3.7-.642-.856.183-3.056-2.689V39Z" transform="translate(67.392 67.825)"/><path class="c" d="M61.5,22l-2.414,2.72-7.915,3.973L40.112,31.168H34V22Z" transform="translate(65.338 32.962)"/><path class="d" d="M74.806,5.023a6.9,6.9,0,0,0-1.375,0H69.335A26.589,26.589,0,0,0,48.4,16.26c-.214,0-.4.305-.611.305A21.387,21.387,0,0,0,26.766,35.558,21.209,21.209,0,0,0,13.9,65.543a30.063,30.063,0,0,0-5.287,41.772,14.954,14.954,0,0,0,2.863,20.965,14.382,14.382,0,0,0,1.323.9,20.033,20.033,0,0,0-1.222,6.779A19.645,19.645,0,0,0,31.2,155.56a18.636,18.636,0,0,0,3.056-.244A19.586,19.586,0,0,0,52.589,167.53a21.871,21.871,0,0,0,4.706-.244h.458l.489.214a23.448,23.448,0,0,0,9.626,2.412h6.479a13.745,13.745,0,0,0,12.224-12.825V18.4A14.326,14.326,0,0,0,74.806,5.023Z" transform="translate(0.525 -1.967)"/><path class="e" d="M69.654,5A26.927,26.927,0,0,0,50.86,16.237c-.214,0-.4.305-.611.305A21.387,21.387,0,0,0,29.254,35.535,21.209,21.209,0,0,0,16.389,65.52a30.06,30.06,0,0,0-5.256,41.772A14.954,14.954,0,0,0,14,128.257a14.383,14.383,0,0,0,1.323.9,20.07,20.07,0,0,0-1.131,6.779c0,10.809,4.462,18.687,15.28,18.687,1.008,0,2.078,3.206,3.056,3.053,2.536,6.321,12.224,8.672,19.344,9.68a4.908,4.908,0,0,0,.947,0,14.373,14.373,0,0,0,1.986,0,19.2,19.2,0,0,0,5.226-.092,25.2,25.2,0,0,0,9.168,2.626,13.745,13.745,0,0,0,12.224-12.825V18.374A14.326,14.326,0,0,0,69.654,5Z" transform="translate(5.677 -1.944)"/><path class="e" d="M69.663,5A26.918,26.918,0,0,0,50.869,16.267c-.214,0-.4.305-.611.305A21.386,21.386,0,0,0,29.263,35.535,21.209,21.209,0,0,0,16.4,65.52a30.063,30.063,0,0,0-5.256,41.8A14.954,14.954,0,0,0,14,128.287a14.383,14.383,0,0,0,1.323.9,20.07,20.07,0,0,0-1.131,6.779c0,10.809,4.462,18.657,15.28,18.657,1.008,0,2.078,3.206,3.056,3.053,2.536,6.321,12.224,8.672,19.344,9.68a4.908,4.908,0,0,0,.947,0,14.373,14.373,0,0,0,1.986,0,19.2,19.2,0,0,0,5.226-.061,25.191,25.191,0,0,0,9.168,2.6,13.745,13.745,0,0,0,12.224-12.825V18.4A14.326,14.326,0,0,0,69.663,5Z" transform="translate(5.668 -1.944)"/><path class="f" d="M28,39V97.063c3.056-.642.856.183,3.056-2.689V39Z" transform="translate(52.997 67.825)"/><path class="f" d="M21,22l2.414,2.72,7.915,3.973,11.062,2.475H48.5V22Z" transform="translate(38.604 32.962)"/><path class="g" d="M69.832,174.908A27.464,27.464,0,0,1,59.264,172.4a22.672,22.672,0,0,1-4.938.177c-.067,0-.138,0-.2,0A22.409,22.409,0,0,1,34.377,160.59a22.544,22.544,0,0,1-23.14-28.163,18.006,18.006,0,0,1-4.3-23.021,33.324,33.324,0,0,1,5.268-42.7c-.244-.629-.465-1.267-.654-1.912a24.242,24.242,0,0,1,14.5-29.5A24.479,24.479,0,0,1,48.629,15.582,29.85,29.85,0,0,1,71.268,4h4.187c.076,0,.153,0,.226.009A17.3,17.3,0,0,1,91.648,20.26l0,138.831a16.789,16.789,0,0,1-16.074,15.814Zm-10.115-8.733a3,3,0,0,1,1.381.333,21.326,21.326,0,0,0,8.853,2.3l5.5,0a10.619,10.619,0,0,0,10.091-9.918L85.539,20.428a11.146,11.146,0,0,0-10.2-10.321H71.36A23.664,23.664,0,0,0,52.92,20.053,3.037,3.037,0,0,1,51.7,21.066a3.427,3.427,0,0,1-1.886.583A18.345,18.345,0,0,0,31.828,37.928a3.053,3.053,0,0,1-2.17,2.589A18.131,18.131,0,0,0,18.648,66.155a3.051,3.051,0,0,1-.828,3.783A27.147,27.147,0,0,0,13.071,107.5a3.045,3.045,0,0,1,0,3.7A11.892,11.892,0,0,0,15.3,127.853a12.82,12.82,0,0,0,1.1.745,3.046,3.046,0,0,1,1.283,3.695,16.435,16.435,0,0,0,18.039,22.013,3.06,3.06,0,0,1,3.325,1.863A16.48,16.48,0,0,0,54.387,166.48h.141a17.752,17.752,0,0,0,4.608-.247A2.858,2.858,0,0,1,59.716,166.175Z" transform="translate(-1.499 -4)"/><path class="g" d="M58.861,55.357A3.054,3.054,0,0,1,55.808,52.4a24.111,24.111,0,0,0-48.2,0,2.965,2.965,0,0,1-3.16,2.949A3.056,3.056,0,0,1,1.5,52.2a30.225,30.225,0,0,1,60.416,0,3.056,3.056,0,0,1-2.952,3.157C58.928,55.357,58.895,55.357,58.861,55.357Z" transform="translate(-1.499 34.982)"/><path class="g" d="M8.506,49.076A3.058,3.058,0,0,1,5.45,46.023a22.5,22.5,0,0,1,8.725-17.877,3.057,3.057,0,0,1,3.759,4.822,16.413,16.413,0,0,0-6.372,13.049,3.055,3.055,0,0,1-3.053,3.059Z" transform="translate(6.623 44.25)"/><path class="g" d="M52.185,34.325a3.056,3.056,0,0,1-3.056-3.05A17.327,17.327,0,0,0,15.773,24.73a3.056,3.056,0,1,1-5.653-2.323A23.439,23.439,0,0,1,55.24,31.263a3.057,3.057,0,0,1-3.05,3.062Z" transform="translate(15.75 3.935)"/><path class="g" d="M21.942,64.418a3.054,3.054,0,0,1-2.151-5.226,7.212,7.212,0,0,0-7.9-11.765A3.056,3.056,0,1,1,9.5,41.8,13.324,13.324,0,0,1,24.09,63.535,3.043,3.043,0,0,1,21.942,64.418Z" transform="translate(11.125 71.409)"/><path class="g" d="M27.683,24.676a3.044,3.044,0,0,1-2.13-.865,5.047,5.047,0,0,0-7.078,0,3.056,3.056,0,1,1-4.26-4.382,11.127,11.127,0,0,1,15.6,0,3.056,3.056,0,0,1-2.13,5.247Z" transform="translate(22.748 21.132)"/><path class="g" d="M28.8,57.293a3.045,3.045,0,0,1-2.154-.889,5.083,5.083,0,0,0-7.154,0,3.057,3.057,0,0,1-4.306-4.339,11.213,11.213,0,0,1,15.766,0A3.054,3.054,0,0,1,28.8,57.293Z" transform="translate(24.783 88.037)"/><path class="g" d="M68.26,62.389H34.645A23.8,23.8,0,0,1,10.87,38.614V32.166a3.056,3.056,0,0,1,6.112,0v6.448A17.684,17.684,0,0,0,34.645,56.277H68.26a3.056,3.056,0,1,1,0,6.112Z" transform="translate(17.773 47.551)"/><path class="g" d="M47.927,37.4H32.984A12.236,12.236,0,0,1,20.76,25.179V22.306a3.056,3.056,0,1,1,6.112,0v2.873a6.118,6.118,0,0,0,6.112,6.112H47.927a3.056,3.056,0,1,1,0,6.112Z" transform="translate(38.11 27.313)"/><path class="g" d="M23.816,62.072a3.055,3.055,0,0,1-3.056-3.056V56.144A12.236,12.236,0,0,1,32.984,43.92H47.927a3.056,3.056,0,1,1,0,6.112H32.984a6.118,6.118,0,0,0-6.112,6.112v2.873A3.055,3.055,0,0,1,23.816,62.072Z" transform="translate(38.11 77.967)"/><g transform="translate(57.535 142.901)"><path class="d" d="M30.672,69.064A9.168,9.168,0,0,1,28.31,50.881a9.259,9.259,0,0,1,2.362,0,3.056,3.056,0,1,1,0,6.112,3.056,3.056,0,1,0,0,5.959,3.056,3.056,0,1,1,0,6.112Z" transform="translate(-20.324 -50.805)"/></g><path class="g" d="M30.546,69.143A9.168,9.168,0,1,1,32.006,50.92a3.054,3.054,0,1,1-.96,6.032,3.546,3.546,0,0,0-.969,0,3.059,3.059,0,0,0-2.533,3.5,3.078,3.078,0,0,0,3.5,2.539,3.056,3.056,0,0,1,.96,6.035A9.445,9.445,0,0,1,30.546,69.143Z" transform="translate(39.414 92.097)"/><path class="g" d="M40.28,38.112H28.056a3.056,3.056,0,0,1,0-6.112H40.28a3.056,3.056,0,1,1,0,6.112Z" transform="translate(46.829 53.498)"/><path class="g" d="M50.724,175A17.784,17.784,0,0,1,33,157.3V21.7A17.782,17.782,0,0,1,50.718,4h4.1A29.915,29.915,0,0,1,77.629,15.857,24.059,24.059,0,0,1,99.757,34.52a2.032,2.032,0,0,0,1.216,1.4A24.162,24.162,0,0,1,114.59,64.931a3.285,3.285,0,0,0,.736,3.307,32.885,32.885,0,0,1,3.893,41.184,18.008,18.008,0,0,1-4.281,23.14A22.38,22.38,0,0,1,112.8,149a22.927,22.927,0,0,1-20.738,11.6,22.664,22.664,0,0,1-20.282,12.416,23.172,23.172,0,0,1-4.816-.476A27.266,27.266,0,0,1,56.69,175ZM39.112,21.717V157.289a11.663,11.663,0,0,0,11.619,11.6h5.831a21.154,21.154,0,0,0,8.67-2.3,3.074,3.074,0,0,1,2.164-.229,16.86,16.86,0,0,0,4.355.54,16.616,16.616,0,0,0,15.527-10.532,3.053,3.053,0,0,1,2.839-1.927h1.222a17.061,17.061,0,0,0,16.138-8.44,16.258,16.258,0,0,0,1.015-13.607,3.049,3.049,0,0,1,1.3-3.689,11.864,11.864,0,0,0,3.307-17.466,3.058,3.058,0,0,1-.021-3.713,26.832,26.832,0,0,0-2.142-35.055,9.371,9.371,0,0,1-2.182-9.341A18.019,18.019,0,0,0,98.617,41.55,8.13,8.13,0,0,1,93.8,35.922a17.985,17.985,0,0,0-17.593-14,3.237,3.237,0,0,1-2.646-1.386,3.352,3.352,0,0,1-.458-.513,23.689,23.689,0,0,0-18.4-9.918H50.724A11.661,11.661,0,0,0,39.112,21.717Z" transform="translate(63.294 -4)"/><path class="g" d="M46.288,55.357c-.034,0-.07,0-.1,0A3.054,3.054,0,0,1,43.232,52.2a30.222,30.222,0,0,1,60.41,0,3.05,3.05,0,0,1-2.952,3.157c-.034,0-.067,0-.1,0a3.055,3.055,0,0,1-3.05-2.952,24.113,24.113,0,0,0-48.2,0A3.051,3.051,0,0,1,46.288,55.357Z" transform="translate(84.327 34.983)"/><path class="g" d="M65.184,49.077h0a3.057,3.057,0,0,1-3.053-3.059A16.428,16.428,0,0,0,55.76,32.969a3.055,3.055,0,1,1,3.753-4.822A22.5,22.5,0,0,1,68.24,46.024,3.056,3.056,0,0,1,65.184,49.077Z" transform="translate(107.66 44.249)"/><path class="g" d="M42.826,34.325H42.82a3.055,3.055,0,0,1-3.05-3.062,23.44,23.44,0,0,1,45.121-8.856,3.055,3.055,0,1,1-5.65,2.323,17.329,17.329,0,0,0-33.359,6.546A3.056,3.056,0,0,1,42.826,34.325Z" transform="translate(77.212 3.935)"/><path class="g" d="M56.294,64.419a3.038,3.038,0,0,1-2.148-.883A13.324,13.324,0,0,1,68.738,41.8a3.055,3.055,0,0,1-2.393,5.623,7.214,7.214,0,0,0-7.9,11.765,3.053,3.053,0,0,1-2.148,5.226Z" transform="translate(98.612 71.409)"/><path class="g" d="M59.976,24.694a3.045,3.045,0,0,1-2.154-.889,5.085,5.085,0,0,0-7.151,0,3.055,3.055,0,1,1-4.309-4.333,11.211,11.211,0,0,1,15.769,0,3.056,3.056,0,0,1-2.154,5.223Z" transform="translate(88.904 21.115)"/><path class="g" d="M58.986,57.293a3.045,3.045,0,0,1-2.154-.889,5.1,5.1,0,0,0-7.154,0,3.056,3.056,0,0,1-4.3-4.339,11.213,11.213,0,0,1,15.766,0,3.056,3.056,0,0,1-2.154,5.223Z" transform="translate(86.868 88.037)"/><path class="g" d="M70.521,62.389H36.906a3.056,3.056,0,0,1,0-6.112H70.521A17.684,17.684,0,0,0,88.185,38.614V32.166a3.056,3.056,0,1,1,6.112,0v6.448A23.8,23.8,0,0,1,70.521,62.389Z" transform="translate(65.034 47.551)"/><path class="g" d="M51.88,37.392H36.906a3.056,3.056,0,0,1,0-6.112H51.88a6.118,6.118,0,0,0,6.112-6.112V22.3a3.056,3.056,0,1,1,6.112,0v2.873A12.236,12.236,0,0,1,51.88,37.392Z" transform="translate(65.03 27.292)"/><path class="g" d="M61.017,62.072a3.055,3.055,0,0,1-3.056-3.056V56.144a6.118,6.118,0,0,0-6.112-6.112H36.906a3.056,3.056,0,0,1,0-6.112H51.849A12.236,12.236,0,0,1,64.073,56.144v2.873A3.053,3.053,0,0,1,61.017,62.072Z" transform="translate(65.03 77.967)"/><g transform="translate(117.034 142.9)"><path class="a" d="M42.846,69.065a3.056,3.056,0,0,1,0-6.112,3.056,3.056,0,1,0,0-5.959,3.056,3.056,0,0,1,0-6.112,9.168,9.168,0,0,1,2.362,18.183A9.261,9.261,0,0,1,42.846,69.065Z" transform="translate(-39.79 -50.805)"/></g><path class="g" d="M41.843,69.014a3.055,3.055,0,0,1-.48-6.072,3.057,3.057,0,0,0,0-6.039,3.054,3.054,0,0,1,.96-6.032,9.167,9.167,0,0,1,0,18.106A3.254,3.254,0,0,1,41.843,69.014Z" transform="translate(75.187 92.146)"/><path class="g" d="M48.28,38.112H36.056a3.056,3.056,0,1,1,0-6.112H48.28a3.056,3.056,0,0,1,0,6.112Z" transform="translate(63.281 53.498)"/></g></g></svg>