<svg id="Layer_1" data-name="Layer 1" xmlns="http://www.w3.org/2000/svg" xmlns:xlink="http://www.w3.org/1999/xlink" viewBox="0 0 156 50"><defs><style>.cls-1{fill:#fff;}.cls-2,.cls-3{fill:#adadad;}.cls-2,.cls-4,.cls-5,.cls-6,.cls-7{fill-rule:evenodd;}.cls-4{fill:url(#linear-gradient);}.cls-5{fill:url(#linear-gradient-2);}.cls-6{fill:url(#linear-gradient-3);}.cls-7{fill:url(#linear-gradient-4);}</style><linearGradient id="linear-gradient" x1="-137.67" y1="200.05" x2="-138.08" y2="199.84" gradientTransform="matrix(14.53, 0, 0, -28.16, 2022.72, 5649.94)" gradientUnits="userSpaceOnUse"><stop offset="0" stop-color="#4896d1"/><stop offset="0.01" stop-color="#4998d2"/><stop offset="0.26" stop-color="#41b8ea"/><stop offset="0.51" stop-color="#3fc6f1"/><stop offset="0.76" stop-color="#55c8e8"/><stop offset="1" stop-color="#5ac8e7"/></linearGradient><linearGradient id="linear-gradient-2" x1="-134.48" y1="189.14" x2="-136.86" y2="189.14" gradientTransform="matrix(11.42, 0, 0, -9.61, 1574.15, 1843.81)" gradientUnits="userSpaceOnUse"><stop offset="0" stop-color="#fddf00"/><stop offset="0.41" stop-color="#fdbc11"/><stop offset="0.78" stop-color="#f9a31a"/><stop offset="1" stop-color="#f89b1c"/></linearGradient><linearGradient id="linear-gradient-3" x1="-139.84" y1="194.76" x2="-140.8" y2="193.52" gradientTransform="matrix(18.76, 0, 0, -14.46, 2650.3, 2844.96)" gradientUnits="userSpaceOnUse"><stop offset="0" stop-color="#ee3f49"/><stop offset="1" stop-color="#c11e63"/></linearGradient><linearGradient id="linear-gradient-4" x1="-140.63" y1="195.29" x2="-140.2" y2="194.74" gradientTransform="matrix(18.76, 0, 0, -14.45, 2650.3, 2828.77)" gradientUnits="userSpaceOnUse"><stop offset="0" stop-color="#319f71"/><stop offset="0.07" stop-color="#2ba670"/><stop offset="0.48" stop-color="#4ab870"/><stop offset="0.8" stop-color="#5dbc6a"/><stop offset="1" stop-color="#66bd68"/></linearGradient></defs><rect class="cls-1" y="0.21" width="156" height="50" rx="10"/><path class="cls-2" d="M123,38.59h2.21V23.79H123Zm19.9-9.46-2.53,6.41h-.08l-2.63-6.41h-2.38l3.95,9-2.25,5h2.3l6.08-13.95Zm-14.26,6.52c0-1.14,1.26-1.58,2.34-1.58a4,4,0,0,1,2,.5,2.67,2.67,0,0,1-2.63,2.34c-.72,0-1.73-.36-1.73-1.26Zm-1.94-4.58,2,.82a2.1,2.1,0,0,1,2-1.09A2.13,2.13,0,0,1,133,32.7v.16a4.88,4.88,0,0,0-2.3-.57c-2.12,0-4.27,1.16-4.27,3.33a3.41,3.41,0,0,0,3.67,3.25,3.11,3.11,0,0,0,2.82-1.44H133v1.14h2.13V32.89c0-2.62-2-4.09-4.49-4.09A4.15,4.15,0,0,0,126.7,31.07Zm-12.85-.14V25.85H117a2.54,2.54,0,1,1,0,5.08Zm-2.21-7.14v14.8h2.21V33h3.08a4.61,4.61,0,1,0,0-9.2ZM85.27,33.88a2.91,2.91,0,0,1,2.8-3.07,2.84,2.84,0,0,1,2.69,3.07,2.81,2.81,0,0,1-2.69,3A2.88,2.88,0,0,1,85.27,33.88ZM90.61,30h-.08a3.5,3.5,0,0,0-2.65-1.12,5,5,0,0,0,0,10.07,3.44,3.44,0,0,0,2.65-1.15h.08v.73c0,1.93-1,3-2.69,3a2.78,2.78,0,0,1-2.54-1.79l-1.93.8a4.81,4.81,0,0,0,4.47,3c2.59,0,4.78-1.53,4.78-5.25v-9H90.61Zm3.62,8.64h2.21V23.79H94.23Zm5.47-4.88a2.77,2.77,0,0,1,2.63-2.94,1.94,1.94,0,0,1,1.87,1.07ZM106.57,32a4.69,4.69,0,0,0-4.31-3.2,4.78,4.78,0,0,0-4.75,5,4.93,4.93,0,0,0,5,5,5,5,0,0,0,4.19-2.23L105,35.52a2.89,2.89,0,0,1-2.48,1.39,2.55,2.55,0,0,1-2.44-1.52l6.73-2.79ZM52.93,30.37v2.14h5.12a4.51,4.51,0,0,1-1.17,2.69,5.25,5.25,0,0,1-4,1.56,5.68,5.68,0,0,1,0-11.36,5.46,5.46,0,0,1,3.86,1.52l1.5-1.5a7.39,7.39,0,0,0-5.36-2.16,7.82,7.82,0,1,0,0,15.64,7.16,7.16,0,0,0,5.46-2.2,7,7,0,0,0,1.85-5,6.74,6.74,0,0,0-.12-1.34Zm10.28,3.49a2.85,2.85,0,1,1,2.84,3A2.9,2.9,0,0,1,63.21,33.86Zm-2.22,0a5.06,5.06,0,1,0,5.06-5A5,5,0,0,0,61,33.86Zm13.24,0a2.85,2.85,0,1,1,2.84,3A2.9,2.9,0,0,1,74.23,33.86Zm-2.21,0a5.06,5.06,0,1,0,5-5A5,5,0,0,0,72,33.86Z"/><path class="cls-3" d="M49,18.33a3.62,3.62,0,0,0,1.85-.5V16.6a6,6,0,0,1-.48.36,2.76,2.76,0,0,1-.44.24,2.29,2.29,0,0,1-.92.17,2.37,2.37,0,0,1-1.76-.73,2.47,2.47,0,0,1-.72-1.8A2.54,2.54,0,0,1,47.23,13,2.34,2.34,0,0,1,49,12.26a2.87,2.87,0,0,1,1.84.74V11.79a3.49,3.49,0,0,0-1.77-.5,3.43,3.43,0,0,0-2.73,1.24,3.51,3.51,0,0,0-.86,2.32A3.48,3.48,0,0,0,49,18.33Zm6.31,0a3.52,3.52,0,0,0,2.54-1,3.5,3.5,0,0,0,0-5,3.39,3.39,0,0,0-2.49-1,3.48,3.48,0,0,0-2.51,1,3.34,3.34,0,0,0-1,2.46,3.33,3.33,0,0,0,1.15,2.64A3.5,3.5,0,0,0,55.29,18.33Zm0-1a2.44,2.44,0,0,1-1.74-.72,2.48,2.48,0,0,1-.76-1.85,2.45,2.45,0,0,1,.73-1.8,2.41,2.41,0,0,1,1.79-.74,2.38,2.38,0,0,1,1.79.74,2.63,2.63,0,0,1,0,3.63A2.41,2.41,0,0,1,55.31,17.37Zm8.35,1.15,2-4.41.66,4.1h1l-1.29-7.3-2.41,5.28-2.33-5.28-1.43,7.3H61l.73-4.1Zm6.18-.31V11.42h-1v6.79Zm7.6.41v-7.2h-1v4.72l-5-5.18v7.25h1V13.46Zm4.74-.28a3.09,3.09,0,0,0,2.41-1.07,2.92,2.92,0,0,0,.59-1,4.6,4.6,0,0,0,.18-1.35v-.23h-2.8v1h1.69a1.86,1.86,0,0,1-.67,1.23,2.07,2.07,0,0,1-1.36.51,2.46,2.46,0,0,1-1.65-.68,2.42,2.42,0,0,1-.81-1.87A2.48,2.48,0,0,1,80.49,13a2.42,2.42,0,0,1,1.8-.74,2.49,2.49,0,0,1,2,1.11l.73-.7a4.17,4.17,0,0,0-1.3-1.05,3.42,3.42,0,0,0-1.49-.33,3.46,3.46,0,0,0-2.51,1,3.4,3.4,0,0,0-1,2.51,3.44,3.44,0,0,0,1,2.48A3.33,3.33,0,0,0,82.18,18.34Zm9.07,0a2.14,2.14,0,0,0,1.56-.61,2.08,2.08,0,0,0,.63-1.55A1.8,1.8,0,0,0,93.05,15a2.91,2.91,0,0,0-1.2-.82l-.68-.27c-.49-.21-.74-.47-.74-.8a.75.75,0,0,1,.28-.6,1.07,1.07,0,0,1,.71-.24,1,1,0,0,1,.57.14,1.47,1.47,0,0,1,.44.53l.83-.5a2,2,0,0,0-1.83-1.14,2.11,2.11,0,0,0-1.46.52,1.63,1.63,0,0,0-.58,1.28,1.88,1.88,0,0,0,1.39,1.72l.66.27a4.42,4.42,0,0,1,.44.23,1.56,1.56,0,0,1,.3.26,1,1,0,0,1,.22.67,1.09,1.09,0,0,1-.31.81,1.17,1.17,0,0,1-1.72-.12,1.72,1.72,0,0,1-.25-.82l-1,.23a2.43,2.43,0,0,0,.7,1.47A2.09,2.09,0,0,0,91.25,18.33Zm6.59,0a3.52,3.52,0,0,0,2.54-1,3.48,3.48,0,0,0,0-5,3.38,3.38,0,0,0-2.48-1,3.49,3.49,0,0,0-2.52,1,3.51,3.51,0,0,0,.1,5.1A3.5,3.5,0,0,0,97.84,18.33Zm0-1a2.44,2.44,0,0,1-1.74-.72,2.47,2.47,0,0,1-.75-1.85A2.41,2.41,0,0,1,96.1,13a2.52,2.52,0,0,1,3.57,0,2.63,2.63,0,0,1,0,3.63A2.41,2.41,0,0,1,97.86,17.37Zm8,1a3.49,3.49,0,0,0,2.53-1,3.34,3.34,0,0,0,1-2.49,3.53,3.53,0,0,0-3.53-3.52,3.45,3.45,0,0,0-2.51,1,3.34,3.34,0,0,0-1.05,2.46,3.33,3.33,0,0,0,1.15,2.64A3.46,3.46,0,0,0,105.89,18.33Zm0-1a2.44,2.44,0,0,1-1.74-.72,2.47,2.47,0,0,1-.75-1.85,2.41,2.41,0,0,1,.73-1.8,2.52,2.52,0,0,1,3.57,0,2.61,2.61,0,0,1,0,3.63A2.41,2.41,0,0,1,105.9,17.37Zm10.83,1.25v-7.2h-1v4.72L110.76,11v7.25h1V13.46Zm7.57-.29a3.52,3.52,0,0,0,2.54-1,3.48,3.48,0,0,0,0-5,3.38,3.38,0,0,0-2.48-1,3.49,3.49,0,0,0-2.52,1,3.51,3.51,0,0,0,.1,5.1A3.5,3.5,0,0,0,124.3,18.33Zm0-1a2.44,2.44,0,0,1-1.74-.72,2.47,2.47,0,0,1-.75-1.85,2.44,2.44,0,0,1,.72-1.8,2.41,2.41,0,0,1,1.79-.74,2.38,2.38,0,0,1,1.79.74,2.63,2.63,0,0,1,0,3.63A2.41,2.41,0,0,1,124.32,17.37Zm10.83,1.25v-7.2h-1v4.72l-5-5.18v7.25h1V13.46Z"/><path class="cls-4" d="M12.51,11.65A2.28,2.28,0,0,0,12,13.23V38.08a2.18,2.18,0,0,0,.52,1.57l.09.08L26.53,25.81V25.5L12.6,11.57Z"/><path class="cls-5" d="M31.17,30.46l-4.65-4.64v-.33l4.65-4.64.1.06L36.76,24c1.57.89,1.57,2.35,0,3.25L31.27,30.4Z"/><path class="cls-6" d="M31.27,30.4l-4.75-4.74-14,14a1.84,1.84,0,0,0,2.34.07Z"/><path class="cls-7" d="M31.27,20.91,14.85,11.58a1.83,1.83,0,0,0-2.34.08l14,14Z"/></svg>