<svg xmlns="http://www.w3.org/2000/svg" width="16" height="21" viewBox="0 0 16 21"><defs><style>.a{fill:#fff;}.b{fill:none;stroke:#fff;stroke-miterlimit:10;stroke-width:2px;}</style></defs><g transform="translate(-4 -1)"><path class="a" d="M20,19.531V9.922A1.968,1.968,0,0,0,18,8H6A1.968,1.968,0,0,0,4,9.922v9.609a1.968,1.968,0,0,0,2,1.922H18A1.968,1.968,0,0,0,20,19.531Zm-6-4.8A2,2,0,1,1,12,12.8,1.968,1.968,0,0,1,14,14.726Z" transform="translate(0 0.548)"/><path class="b" d="M15.981,13.7V7.849C15.981,4.574,14.005,2,11.491,2S7,4.574,7,7.849V13.7" transform="translate(0.509)"/></g></svg>